UNKNOWN
nRows=4
nColumns=264

# SIMM Motion File Header:
name UNKNOWN
datacolumns 264
datarows 4
otherdata 1
range 0.30000000 0.32500000
endheader
time	pelvis_tx	pelvis_ty	pelvis_tz	pelvis_list	pelvis_rotation	pelvis_tilt	hip_flexion_r	hip_adduction_r	hip_rotation_r	knee_angle_r	ankle_angle_r	hip_flexion_l	hip_adduction_l	hip_rotation_l	knee_angle_l	ankle_angle_l	lumbar_extension	lumbar_bending	lumbar_rotation	subtalar_angle_r	mtp_angle_r	subtalar_angle_l	mtp_angle_l	midhip_tx	midhip_ty	midhip_tz	hip_r_tx	hip_r_ty	hip_r_tz	hip_l_tx	hip_l_ty	hip_l_tz	knee_r_tx	knee_r_ty	knee_r_tz	knee_l_tx	knee_l_ty	knee_l_tz	ankle_r_tx	ankle_r_ty	ankle_r_tz	ankle_l_tx	ankle_l_ty	ankle_l_tz	midasis_tx	midasis_ty	midasis_tz	asis_r_tx	asis_r_ty	asis_r_tz	asis_l_tx	asis_l_ty	asis_l_tz	psis_r_tx	psis_r_ty	psis_r_tz	psis_l_tx	psis_l_ty	psis_l_tz	epicondLat_r_tx	epicondLat_r_ty	epicondLat_r_tz	epicondLat_l_tx	epicondLat_l_ty	epicondLat_l_tz	epicondMed_r_tx	epicondMed_r_ty	epicondMed_r_tz	epicondMed_l_tx	epicondMed_l_ty	epicondMed_l_tz	malleolusLat_r_tx	malleolusLat_r_ty	malleolusLat_r_tz	malleolusLat_l_tx	malleolusLat_l_ty	malleolusLat_l_tz	malleolusMedv_r_tx	malleolusMedv_r_ty	malleolusMedv_r_tz	malleolusMedv_l_tx	malleolusMedv_l_ty	malleolusMedv_l_tz	neck_tx	neck_ty	neck_tz	subclavicle_r_tx	subclavicle_r_ty	subclavicle_r_tz	subclavicle_l_tx	subclavicle_l_ty	subclavicle_l_tz	sternalnotch_tx	sternalnotch_ty	sternalnotch_tz	xyphoidprocess_tx	xyphoidprocess_ty	xyphoidprocess_tz	thighwand_r_tx	thighwand_r_ty	thighwand_r_tz	thighwand_l_tx	thighwand_l_ty	thighwand_l_tz	upperleg1_r_tx	upperleg1_r_ty	upperleg1_r_tz	upperleg1_l_tx	upperleg1_l_ty	upperleg1_l_tz	upperleg2_r_tx	upperleg2_r_ty	upperleg2_r_tz	upperleg2_l_tx	upperleg2_l_ty	upperleg2_l_tz	shankwand_r_tx	shankwand_r_ty	shankwand_r_tz	shankwand_l_tx	shankwand_l_ty	shankwand_l_tz	lowerleg1_r_tx	lowerleg1_r_ty	lowerleg1_r_tz	lowerleg1_l_tx	lowerleg1_l_ty	lowerleg1_l_tz	toe_r_tx	toe_r_ty	toe_r_tz	toe_l_tx	toe_l_ty	toe_l_tz	ground_force_vx	ground_force_vy	ground_force_vz	ground_force_px	ground_force_py	ground_force_pz	ground_force_vx	ground_force_vy	ground_force_vz	ground_force_px	ground_force_py	ground_force_pz	ground_torque_x	ground_torque_y	ground_torque_z	ground_torque_x	ground_torque_y	ground_torque_z	ground_marker_px	ground_marker_py	ground_marker_pz	ground_marker_px	ground_marker_py	ground_marker_pz	ground_marker_px	ground_marker_py	ground_marker_pz	ground_marker_px	ground_marker_py	ground_marker_pz	ground_marker_px	ground_marker_py	ground_marker_pz	ground_marker_px	ground_marker_py	ground_marker_pz	ground_marker_px	ground_marker_py	ground_marker_pz	ground_marker_px	ground_marker_py	ground_marker_pz	ground_marker_px	ground_marker_py	ground_marker_pz	ground_marker_px	ground_marker_py	ground_marker_pz	ground_marker_px	ground_marker_py	ground_marker_pz	ground_marker_px	ground_marker_py	ground_marker_pz	ground_marker_px	ground_marker_py	ground_marker_pz	ground_marker_px	ground_marker_py	ground_marker_pz	ground_marker_px	ground_marker_py	ground_marker_pz	ground_marker_px	ground_marker_py	ground_marker_pz	ground_marker_px	ground_marker_py	ground_marker_pz	ground_marker_px	ground_marker_py	ground_marker_pz	ground_marker_px	ground_marker_py	ground_marker_pz	ground_marker_px	ground_marker_py	ground_marker_pz	ground_marker_px	ground_marker_py	ground_marker_pz	ground_marker_px	ground_marker_py	ground_marker_pz	ground_marker_px	ground_marker_py	ground_marker_pz	ground_marker_px	ground_marker_py	ground_marker_pz	ground_marker_px	ground_marker_py	ground_marker_pz	ground_marker_px	ground_marker_py	ground_marker_pz	ground_marker_px	ground_marker_py	ground_marker_pz	ground_marker_px	ground_marker_py	ground_marker_pz	ground_marker_px	ground_marker_py	ground_marker_pz	ground_marker_px	ground_marker_py	ground_marker_pz	ground_marker_px	ground_marker_py	ground_marker_pz	ground_marker_px	ground_marker_py	ground_marker_pz	ground_marker_px	ground_marker_py	ground_marker_pz	ground_marker_px	ground_marker_py	ground_marker_pz	ground_marker_px	ground_marker_py	ground_marker_pz	ground_marker_px	ground_marker_py	ground_marker_pz	ground_marker_px	ground_marker_py	ground_marker_pz	
      0.30000000	      0.14743291	      0.92816349	     -0.24793673	      2.67073434	     -2.75427414	     -1.79170911	      1.74369610	     -0.38849474	     16.83354661	     -4.45839571	      8.05040349	     17.69597109	      3.32294229	     -0.86398618	    -58.56451546	      1.27110575	     -1.75956852	      0.98903700	      2.31208808	      0.00000000	      0.00000000	      0.00000000	      0.00000000	      0.09146300	      0.89056300	     -0.23601600	      0.08324400	      0.89556500	     -0.14648800	      0.09968300	      0.88556100	     -0.32554400	      0.08517500	      0.47576100	     -0.17966300	      0.20437400	      0.47057800	     -0.31736000	      0.04334200	      0.06838300	     -0.21399500	     -0.05203100	      0.17557400	     -0.31714300	      0.15895200	      0.96356800	     -0.24334600	      0.16158300	      0.96178700	     -0.12543000	      0.15632100	      0.96534900	     -0.36126200	     -0.02702200	      1.00663300	     -0.20693700	     -0.02463800	      1.00389900	     -0.29235700	      0.10060400	      0.47048200	     -0.12123100	      0.19676100	      0.47648600	     -0.37787500	      0.05853800	      0.47515700	     -0.22847300	      0.20749800	      0.45330400	     -0.26705800	      0.03326300	      0.06615500	     -0.17535000	     -0.06943700	      0.18971800	     -0.34904900	      0.05159100	      0.08449300	     -0.24141500	     -0.03849600	      0.18245000	     -0.29096500	     -0.02285700	      1.43226600	     -0.22525100	      0.10495500	      1.35225800	     -0.18097300	      0.10581800	      1.35837800	     -0.28862400	      0.08967500	      1.36351700	     -0.23153900	      0.16614300	      1.19868200	     -0.25206100	      0.14562700	      0.56853700	     -0.04488400	      0.33437100	      0.59075100	     -0.33524900	      0.15335600	      0.63745900	     -0.10738000	      0.24943700	      0.62472000	     -0.36860000	      0.14716000	      0.55157500	     -0.13586300	      0.25063800	      0.53685700	     -0.36495000	      0.07281700	      0.18684500	     -0.07920400	      0.02785700	      0.28762400	     -0.43512500	      0.05321800	      0.16258300	     -0.15348400	     -0.00132600	      0.26299900	     -0.36307200	      0.16413500	      0.04017900	     -0.19637000	      0.00604500	      0.07307500	     -0.34672600	    -26.00849251	    557.04600954	    -15.04808823	      0.10842365	      0.00000000	     -0.19788472	      0.00000000	      0.00000000	      0.00000000	      0.52285767	      0.00000000	     -0.26611115	      0.00000000	      1.11716626	      0.00000000	      0.00000000	      0.00000000	      0.00000000	      0.09146333	      0.89056295	     -0.23601598	      0.08324383	      0.89556456	     -0.14648807	      0.09968283	      0.88556135	     -0.32554388	      0.08517481	      0.47576073	     -0.17966282	      0.20437366	      0.47057810	     -0.31735972	      0.04334190	      0.06838339	     -0.21399477	     -0.05203098	      0.17557429	     -0.31714305	      0.15895194	      0.96356785	     -0.24334598	      0.16158327	      0.96178675	     -0.12542991	      0.15632060	      0.96534902	     -0.36126202	     -0.02702183	      1.00663304	     -0.20693709	     -0.02463785	      1.00389934	     -0.29235700	      0.10060351	      0.47048199	     -0.12123081	      0.19676118	      0.47648621	     -0.37787524	      0.05853791	      0.47515681	     -0.22847310	      0.20749812	      0.45330429	     -0.26705828	      0.03326263	      0.06615514	     -0.17534967	     -0.06943738	      0.18971768	     -0.34904888	      0.05159128	      0.08449304	     -0.24141541	     -0.03849602	      0.18244974	     -0.29096502	     -0.02285682	      1.43226552	     -0.22525117	      0.10495537	      1.35225844	     -0.18097253	      0.10581755	      1.35837758	     -0.28862393	      0.08967474	      1.36351728	     -0.23153932	      0.16614302	      1.19868159	     -0.25206083	      0.14562692	      0.56853747	     -0.04488411	      0.33437112	      0.59075081	     -0.33524865	      0.15335590	      0.63745850	     -0.10737953	      0.24943718	      0.62472034	     -0.36859950	      0.14716017	      0.55157536	     -0.13586301	      0.25063777	      0.53685713	     -0.36494985	      0.07281722	      0.18684527	     -0.07920407	      0.02785737	      0.28762370	     -0.43512508	      0.05321759	      0.16258255	     -0.15348446	     -0.00132562	      0.26299876	     -0.36307174	      0.16413490	      0.04017928	     -0.19636986	      0.00604458	      0.07307451	     -0.34672585
      0.30833000	      0.15477062	      0.92862808	     -0.24748725	      3.08723913	     -2.96119554	     -1.65193067	      1.11540462	     -0.84602616	     16.89501006	     -4.40600234	      8.48440459	     18.42688884	      3.62529011	     -1.10152250	    -57.28500287	      1.83240005	     -2.15300852	      0.48313088	      2.67029071	      0.00000000	      0.00000000	      0.00000000	      0.00000000	      0.09731500	      0.89056900	     -0.23710700	      0.08791600	      0.89486600	     -0.14765900	      0.10671400	      0.88627200	     -0.32655500	      0.08894700	      0.47582200	     -0.17961500	      0.21781000	      0.47296100	     -0.31681600	      0.04348900	      0.06832400	     -0.21425900	     -0.02739900	      0.16922300	     -0.31698000	      0.16678600	      0.96385700	     -0.24317300	      0.16921500	      0.96154200	     -0.12528200	      0.16435700	      0.96617200	     -0.36106500	     -0.01928500	      1.00651900	     -0.20694600	     -0.01698100	      1.00417300	     -0.29226700	      0.10370100	      0.47016500	     -0.12144700	      0.21088200	      0.47867600	     -0.37739700	      0.06210300	      0.47563200	     -0.22894100	      0.22028000	      0.45554300	     -0.26669800	      0.03339800	      0.06616200	     -0.17561300	     -0.04552200	      0.18294400	     -0.34867100	      0.05281000	      0.08443600	     -0.24142500	     -0.01413500	      0.17660200	     -0.29087800	     -0.01470300	      1.43236000	     -0.22478800	      0.11539500	      1.35321200	     -0.18096800	      0.11426200	      1.35823300	     -0.28831100	      0.09783800	      1.36371000	     -0.23129600	      0.17648400	      1.19938800	     -0.25144500	      0.15000000	      0.56803900	     -0.04517600	      0.34653600	      0.59517700	     -0.33351900	      0.15827100	      0.63693400	     -0.10748400	      0.26135300	      0.62768600	     -0.36763900	      0.15146900	      0.55109700	     -0.13633000	      0.26338000	      0.53951000	     -0.36410800	      0.07385800	      0.18665200	     -0.07921300	      0.04756600	      0.28471500	     -0.43467100	      0.05503100	      0.16259100	     -0.15367100	      0.01968200	      0.25851100	     -0.36284400	      0.16413300	      0.04024800	     -0.19633700	      0.03494200	      0.07047700	     -0.34790700	    -24.41199168	    553.51134221	    -16.10455433	      0.11213076	      0.00000000	     -0.19717615	      0.00000000	      0.00000000	      0.00000000	      0.52680505	      0.00000000	     -0.26649481	      0.00000000	      1.18079761	      0.00000000	      0.00000000	      0.00000000	      0.00000000	      0.09731526	      0.89056891	     -0.23710701	      0.08791641	      0.89486593	     -0.14765857	      0.10671411	      0.88627189	     -0.32655543	      0.08894710	      0.47582212	     -0.17961507	      0.21780977	      0.47296098	     -0.31681564	      0.04348851	      0.06832410	     -0.21425863	     -0.02739925	      0.16922261	     -0.31697980	      0.16678610	      0.96385682	     -0.24317336	      0.16921517	      0.96154207	     -0.12528175	      0.16435702	      0.96617150	     -0.36106497	     -0.01928526	      1.00651932	     -0.20694579	     -0.01698063	      1.00417304	     -0.29226667	      0.10370093	      0.47016534	     -0.12144701	      0.21088152	      0.47867638	     -0.37739688	      0.06210271	      0.47563165	     -0.22894068	      0.22027996	      0.45554295	     -0.26669785	      0.03339810	      0.06616212	     -0.17561267	     -0.04552169	      0.18294390	     -0.34867057	      0.05280958	      0.08443645	     -0.24142523	     -0.01413476	      0.17660204	     -0.29087776	     -0.01470300	      1.43235970	     -0.22478770	      0.11539537	      1.35321212	     -0.18096839	      0.11426204	      1.35823333	     -0.28831086	      0.09783800	      1.36371040	     -0.23129605	      0.17648406	      1.19938803	     -0.25144464	      0.14999953	      0.56803930	     -0.04517599	      0.34653610	      0.59517658	     -0.33351931	      0.15827116	      0.63693380	     -0.10748363	      0.26135319	      0.62768602	     -0.36763942	      0.15146866	      0.55109710	     -0.13632984	      0.26338047	      0.53950995	     -0.36410782	      0.07385779	      0.18665226	     -0.07921253	      0.04756593	      0.28471455	     -0.43467131	      0.05503105	      0.16259138	     -0.15367122	      0.01968228	      0.25851113	     -0.36284423	      0.16413325	      0.04024839	     -0.19633684	      0.03494158	      0.07047686	     -0.34790650
      0.31667000	      0.16247668	      0.92882819	     -0.24686341	      3.42084590	     -3.05729411	     -1.52758352	      0.61867574	     -1.14145888	     16.67489226	     -4.70197233	      9.11734330	     19.09913396	      3.83632606	     -1.23673940	    -55.86144971	      2.40586365	     -2.38576662	      0.04126321	      2.80795011	      0.00000000	      0.00000000	      0.00000000	      0.00000000	      0.10542700	      0.89080500	     -0.23686900	      0.09581000	      0.89488400	     -0.14743400	      0.11504400	      0.88672600	     -0.32630500	      0.09497400	      0.47510900	     -0.17991600	      0.23184300	      0.47512400	     -0.31645000	      0.04366000	      0.06831100	     -0.21452500	     -0.00242400	      0.16257800	     -0.31681000	      0.17454700	      0.96401300	     -0.24307300	      0.17666600	      0.96114600	     -0.12519800	      0.17242800	      0.96688000	     -0.36094800	     -0.01147600	      1.00629300	     -0.20702900	     -0.00936500	      1.00432000	     -0.29225300	      0.10673300	      0.46986500	     -0.12162900	      0.22463900	      0.48069100	     -0.37694500	      0.06857600	      0.47508700	     -0.23053700	      0.23348800	      0.45784300	     -0.26605100	      0.03356200	      0.06620800	     -0.17587700	     -0.02125200	      0.17579100	     -0.34830500	      0.05408700	      0.08420200	     -0.24195600	      0.01075300	      0.17025800	     -0.29076600	     -0.00624200	      1.43245500	     -0.22424000	      0.12417600	      1.35385800	     -0.18076800	      0.12230400	      1.35801500	     -0.28817000	      0.10608800	      1.36383600	     -0.23110400	      0.18496700	      1.19954200	     -0.25043700	      0.15434600	      0.56750500	     -0.04542500	      0.35829000	      0.59934200	     -0.33181300	      0.16275100	      0.63638200	     -0.10749800	      0.27277100	      0.63076800	     -0.36674400	      0.15675400	      0.55064000	     -0.13688000	      0.27623500	      0.54220800	     -0.36307900	      0.07490900	      0.18644500	     -0.07910400	      0.06742100	      0.28142400	     -0.43422200	      0.05609800	      0.16274500	     -0.15356800	      0.04099300	      0.25392600	     -0.36217500	      0.16411600	      0.04030700	     -0.19626700	      0.06426600	      0.06779500	     -0.34887800	    -22.92013655	    550.81263077	    -17.10839613	      0.11584470	      0.00000000	     -0.19650243	      0.00000000	      0.00000000	      0.00000000	      0.53086890	      0.00000000	     -0.26686139	      0.00000000	      1.24478650	      0.00000000	      0.00000000	      0.00000000	      0.00000000	      0.10542701	      0.89080489	     -0.23686925	      0.09580988	      0.89488381	     -0.14743383	      0.11504414	      0.88672590	     -0.32630467	      0.09497350	      0.47510874	     -0.17991590	      0.23184326	      0.47512400	     -0.31645027	      0.04366048	      0.06831082	     -0.21452455	     -0.00242355	      0.16257802	     -0.31681040	      0.17454705	      0.96401292	     -0.24307311	      0.17666604	      0.96114588	     -0.12519820	      0.17242807	      0.96687996	     -0.36094800	     -0.01147575	      1.00629342	     -0.20702864	     -0.00936541	      1.00432014	     -0.29225305	      0.10673291	      0.46986476	     -0.12162916	      0.22463939	      0.48069081	     -0.37694526	      0.06857581	      0.47508681	     -0.23053657	      0.23348823	      0.45784262	     -0.26605144	      0.03356187	      0.06620825	     -0.17587747	     -0.02125154	      0.17579091	     -0.34830526	      0.05408722	      0.08420204	     -0.24195573	      0.01075348	      0.17025785	     -0.29076618	     -0.00624246	      1.43245506	     -0.22424014	      0.12417559	      1.35385752	     -0.18076800	      0.12230364	      1.35801458	     -0.28817013	      0.10608801	      1.36383617	     -0.23110428	      0.18496740	      1.19954240	     -0.25043720	      0.15434572	      0.56750548	     -0.04542534	      0.35829028	      0.59934217	     -0.33181280	      0.16275093	      0.63638204	     -0.10749830	      0.27277076	      0.63076842	     -0.36674434	      0.15675420	      0.55064046	     -0.13687964	      0.27623510	      0.54220766	     -0.36307940	      0.07490884	      0.18644464	     -0.07910431	      0.06742144	      0.28142387	     -0.43422157	      0.05609773	      0.16274527	     -0.15356833	      0.04099302	      0.25392550	     -0.36217469	      0.16411583	      0.04030698	     -0.19626668	      0.06426570	      0.06779546	     -0.34887823
      0.32500000	      0.17040696	      0.92892291	     -0.24646269	      3.65812810	     -3.13796503	     -1.39505616	     -0.10820689	     -1.40830331	     16.60381675	     -4.60315201	      9.57342561	     19.68659427	      3.95797613	     -1.35158332	    -54.27577125	      2.97584494	     -2.58205300	     -0.28977880	      3.09857966	      0.00000000	      0.00000000	      0.00000000	      0.00000000	      0.11392200	      0.89099800	     -0.23708600	      0.10401700	      0.89487900	     -0.14767300	      0.12382700	      0.88711700	     -0.32649900	      0.09925000	      0.47499300	     -0.17987700	      0.24668800	      0.47682600	     -0.31625500	      0.04379600	      0.06837100	     -0.21478300	      0.02297100	      0.15570300	     -0.31658800	      0.18245000	      0.96411900	     -0.24298600	      0.18437300	      0.96077800	     -0.12510900	      0.18052800	      0.96746100	     -0.36086300	     -0.00357700	      1.00601500	     -0.20716100	     -0.00173100	      1.00438300	     -0.29229300	      0.10968000	      0.46955500	     -0.12174400	      0.23795100	      0.48250900	     -0.37649700	      0.07307000	      0.47532800	     -0.23150800	      0.24737600	      0.45977600	     -0.26551500	      0.03372500	      0.06631500	     -0.17612600	      0.00345900	      0.16831300	     -0.34791300	      0.05427700	      0.08396800	     -0.24244100	      0.03615000	      0.16372900	     -0.29075700	      0.00212600	      1.43248700	     -0.22389500	      0.13243700	      1.35375900	     -0.18082900	      0.13046000	      1.35815000	     -0.28805100	      0.11439800	      1.36386700	     -0.23094600	      0.19304700	      1.19955300	     -0.25082300	      0.15868000	      0.56694100	     -0.04563800	      0.36964800	      0.60316700	     -0.33018200	      0.16743400	      0.63571800	     -0.10751000	      0.28372800	      0.63349800	     -0.36604800	      0.16121700	      0.55020900	     -0.13722900	      0.28932100	      0.54492900	     -0.36214700	      0.07601100	      0.18623200	     -0.07903100	      0.08747900	      0.27776000	     -0.43380700	      0.05608000	      0.16288000	     -0.15357000	      0.06256900	      0.24890200	     -0.36161000	      0.16407900	      0.04030900	     -0.19616900	      0.09403400	      0.06513600	     -0.34973800	    -21.35647497	    548.86709342	    -17.93516051	      0.11953419	      0.00000000	     -0.19594075	      0.00000000	      0.00000000	      0.00000000	      0.53500934	      0.00000000	     -0.26726382	      0.00000000	      1.31458301	      0.00000000	      0.00000000	      0.00000000	      0.00000000	      0.11392178	      0.89099789	     -0.23708585	      0.10401657	      0.89487892	     -0.14767306	      0.12382699	      0.88711679	     -0.32649863	      0.09925020	      0.47499272	     -0.17987719	      0.24668805	      0.47682631	     -0.31625476	      0.04379572	      0.06837142	     -0.21478294	      0.02297128	      0.15570295	     -0.31658834	      0.18245026	      0.96411937	     -0.24298570	      0.18437299	      0.96077800	     -0.12510882	      0.18052752	      0.96746075	     -0.36086255	     -0.00357693	      1.00601530	     -0.20716095	     -0.00173110	      1.00438261	     -0.29229343	      0.10967983	      0.46955538	     -0.12174425	      0.23795050	      0.48250902	     -0.37649694	      0.07307029	      0.47532839	     -0.23150843	      0.24737602	      0.45977631	     -0.26551452	      0.03372487	      0.06631519	     -0.17612611	      0.00345879	      0.16831346	     -0.34791306	      0.05427731	      0.08396816	     -0.24244066	      0.03614963	      0.16372916	     -0.29075718	      0.00212604	      1.43248677	     -0.22389501	      0.13243714	      1.35375869	     -0.18082944	      0.13045968	      1.35815048	     -0.28805140	      0.11439774	      1.36386693	     -0.23094597	      0.19304742	      1.19955301	     -0.25082275	      0.15867950	      0.56694067	     -0.04563829	      0.36964849	      0.60316741	     -0.33018178	      0.16743372	      0.63571769	     -0.10751040	      0.28372785	      0.63349837	     -0.36604828	      0.16121739	      0.55020875	     -0.13722904	      0.28932062	      0.54492885	     -0.36214709	      0.07601099	      0.18623228	     -0.07903150	      0.08747850	      0.27775991	     -0.43380734	      0.05607963	      0.16288029	     -0.15357043	      0.06256904	      0.24890241	     -0.36160964	      0.16407870	      0.04030941	     -0.19616927	      0.09403388	      0.06513559	     -0.34973797
